<svg width="198" height="139" viewBox="0 0 198 139" fill="none" xmlns="http://www.w3.org/2000/svg">
<rect x="48" y="1" width="102.348" height="100.957" rx="9.43478" stroke="#FBFEFF" stroke-width="2"/>
<rect x="98.5" y="58.5" width="1" height="1" rx="0.5" fill="#FBFEFF" stroke="#FBFEFF"/>
<rect x="104.598" y="64.2574" width="0.5" height="34.6013" transform="rotate(-47.0657 104.598 64.2574)" fill="#FBFEFF" stroke="#FBFEFF" stroke-width="0.5"/>
<rect x="98.75" y="8.59784" width="0.5" height="42.6304" fill="#FBFEFF" stroke="#FBFEFF" stroke-width="0.5"/>
<path d="M21.561 124.46H17.871V123.5H26.361V124.46H22.671V134H21.561V124.46ZM50.3043 134L47.9043 130.625C47.6343 130.655 47.3543 130.67 47.0643 130.67H44.2443V134H43.1343V123.5H47.0643C48.4043 123.5 49.4543 123.82 50.2143 124.46C50.9743 125.1 51.3543 125.98 51.3543 127.1C51.3543 127.92 51.1443 128.615 50.7243 129.185C50.3143 129.745 49.7243 130.15 48.9543 130.4L51.5193 134H50.3043ZM47.0343 129.725C48.0743 129.725 48.8693 129.495 49.4193 129.035C49.9693 128.575 50.2443 127.93 50.2443 127.1C50.2443 126.25 49.9693 125.6 49.4193 125.15C48.8693 124.69 48.0743 124.46 47.0343 124.46H44.2443V129.725H47.0343ZM75.5592 131.195H69.7092L68.4492 134H67.2942L72.0942 123.5H73.1892L77.9892 134H76.8192L75.5592 131.195ZM75.1542 130.295L72.6342 124.655L70.1142 130.295H75.1542ZM99.1396 134.09C98.0996 134.09 97.1596 133.86 96.3196 133.4C95.4896 132.94 94.8346 132.305 94.3546 131.495C93.8846 130.675 93.6496 129.76 93.6496 128.75C93.6496 127.74 93.8846 126.83 94.3546 126.02C94.8346 125.2 95.4946 124.56 96.3346 124.1C97.1746 123.64 98.1146 123.41 99.1546 123.41C99.9346 123.41 100.655 123.54 101.315 123.8C101.975 124.06 102.535 124.44 102.995 124.94L102.29 125.645C101.47 124.815 100.435 124.4 99.1846 124.4C98.3546 124.4 97.5996 124.59 96.9196 124.97C96.2396 125.35 95.7046 125.87 95.3146 126.53C94.9346 127.19 94.7446 127.93 94.7446 128.75C94.7446 129.57 94.9346 130.31 95.3146 130.97C95.7046 131.63 96.2396 132.15 96.9196 132.53C97.5996 132.91 98.3546 133.1 99.1846 133.1C100.445 133.1 101.48 132.68 102.29 131.84L102.995 132.545C102.535 133.045 101.97 133.43 101.3 133.7C100.64 133.96 99.9196 134.09 99.1396 134.09ZM123.616 129.065L121.471 131.24V134H120.361V123.5H121.471V129.845L127.636 123.5H128.911L124.366 128.255L129.226 134H127.906L123.616 129.065ZM153.45 133.04V134H146.025V123.5H153.225V124.46H147.135V128.195H152.565V129.14H147.135V133.04H153.45ZM178.229 134L175.829 130.625C175.559 130.655 175.279 130.67 174.989 130.67H172.169V134H171.059V123.5H174.989C176.329 123.5 177.379 123.82 178.139 124.46C178.899 125.1 179.279 125.98 179.279 127.1C179.279 127.92 179.069 128.615 178.649 129.185C178.239 129.745 177.649 130.15 176.879 130.4L179.444 134H178.229ZM174.959 129.725C175.999 129.725 176.794 129.495 177.344 129.035C177.894 128.575 178.169 127.93 178.169 127.1C178.169 126.25 177.894 125.6 177.344 125.15C176.794 124.69 175.999 124.46 174.959 124.46H172.169V129.725H174.959Z" fill="#FBFEFF"/>
</svg>
